<mxfile host="app.diagrams.net" agent="Mozilla/5.0 (Macintosh; Intel Mac OS X 10_15_7) AppleWebKit/537.36 (KHTML, like Gecko) Chrome/140.0.0.0 Safari/537.36" version="28.2.5">
  <diagram name="Page-1" id="C9bJRumhFQhJBT1QdkPO">
    <mxGraphModel dx="1175" dy="872" grid="1" gridSize="10" guides="1" tooltips="1" connect="1" arrows="1" fold="1" page="1" pageScale="1" pageWidth="827" pageHeight="1169" math="0" shadow="0">
      <root>
        <mxCell id="0" />
        <mxCell id="1" parent="0" />
        <mxCell id="S-BvVyqAKhGbcT2tyxxs-4" value="" style="edgeStyle=orthogonalEdgeStyle;rounded=0;orthogonalLoop=1;jettySize=auto;html=1;" edge="1" parent="1" source="S-BvVyqAKhGbcT2tyxxs-1" target="S-BvVyqAKhGbcT2tyxxs-3">
          <mxGeometry relative="1" as="geometry" />
        </mxCell>
        <mxCell id="S-BvVyqAKhGbcT2tyxxs-1" value="start" style="ellipse;whiteSpace=wrap;html=1;" vertex="1" parent="1">
          <mxGeometry x="360" y="50" width="80" height="40" as="geometry" />
        </mxCell>
        <mxCell id="S-BvVyqAKhGbcT2tyxxs-2" value="isleap = 1" style="rounded=0;whiteSpace=wrap;html=1;" vertex="1" parent="1">
          <mxGeometry x="20" y="290" width="120" height="40" as="geometry" />
        </mxCell>
        <mxCell id="S-BvVyqAKhGbcT2tyxxs-7" value="" style="edgeStyle=orthogonalEdgeStyle;rounded=0;orthogonalLoop=1;jettySize=auto;html=1;" edge="1" parent="1" source="S-BvVyqAKhGbcT2tyxxs-3" target="S-BvVyqAKhGbcT2tyxxs-6">
          <mxGeometry relative="1" as="geometry" />
        </mxCell>
        <mxCell id="S-BvVyqAKhGbcT2tyxxs-3" value="year" style="shape=parallelogram;perimeter=parallelogramPerimeter;whiteSpace=wrap;html=1;fixedSize=1;" vertex="1" parent="1">
          <mxGeometry x="340" y="120" width="120" height="40" as="geometry" />
        </mxCell>
        <mxCell id="S-BvVyqAKhGbcT2tyxxs-5" value="isleap = 0" style="rounded=0;whiteSpace=wrap;html=1;" vertex="1" parent="1">
          <mxGeometry x="510" y="340" width="120" height="40" as="geometry" />
        </mxCell>
        <mxCell id="S-BvVyqAKhGbcT2tyxxs-10" value="" style="edgeStyle=orthogonalEdgeStyle;rounded=0;orthogonalLoop=1;jettySize=auto;html=1;" edge="1" parent="1" source="S-BvVyqAKhGbcT2tyxxs-6" target="S-BvVyqAKhGbcT2tyxxs-8">
          <mxGeometry relative="1" as="geometry">
            <Array as="points">
              <mxPoint x="240" y="215" />
            </Array>
          </mxGeometry>
        </mxCell>
        <mxCell id="S-BvVyqAKhGbcT2tyxxs-6" value="year % 4 == 0" style="rhombus;whiteSpace=wrap;html=1;" vertex="1" parent="1">
          <mxGeometry x="320" y="190" width="160" height="50" as="geometry" />
        </mxCell>
        <mxCell id="S-BvVyqAKhGbcT2tyxxs-12" value="" style="edgeStyle=orthogonalEdgeStyle;rounded=0;orthogonalLoop=1;jettySize=auto;html=1;" edge="1" parent="1" source="S-BvVyqAKhGbcT2tyxxs-8" target="S-BvVyqAKhGbcT2tyxxs-9">
          <mxGeometry relative="1" as="geometry">
            <Array as="points">
              <mxPoint x="410" y="265" />
            </Array>
          </mxGeometry>
        </mxCell>
        <mxCell id="S-BvVyqAKhGbcT2tyxxs-8" value="year % 100 != 0" style="rhombus;whiteSpace=wrap;html=1;" vertex="1" parent="1">
          <mxGeometry x="160" y="240" width="160" height="50" as="geometry" />
        </mxCell>
        <mxCell id="S-BvVyqAKhGbcT2tyxxs-16" value="" style="edgeStyle=orthogonalEdgeStyle;rounded=0;orthogonalLoop=1;jettySize=auto;html=1;" edge="1" parent="1" source="S-BvVyqAKhGbcT2tyxxs-9" target="S-BvVyqAKhGbcT2tyxxs-5">
          <mxGeometry relative="1" as="geometry">
            <Array as="points">
              <mxPoint x="570" y="315" />
            </Array>
          </mxGeometry>
        </mxCell>
        <mxCell id="S-BvVyqAKhGbcT2tyxxs-9" value="year % 400 == 0" style="rhombus;whiteSpace=wrap;html=1;" vertex="1" parent="1">
          <mxGeometry x="330" y="290" width="160" height="50" as="geometry" />
        </mxCell>
        <mxCell id="S-BvVyqAKhGbcT2tyxxs-11" value="" style="edgeStyle=orthogonalEdgeStyle;rounded=0;orthogonalLoop=1;jettySize=auto;html=1;" edge="1" parent="1">
          <mxGeometry relative="1" as="geometry">
            <mxPoint x="160" y="265" as="sourcePoint" />
            <mxPoint x="80" y="290" as="targetPoint" />
            <Array as="points">
              <mxPoint x="80" y="265" />
            </Array>
          </mxGeometry>
        </mxCell>
        <mxCell id="S-BvVyqAKhGbcT2tyxxs-20" value="" style="edgeStyle=orthogonalEdgeStyle;rounded=0;orthogonalLoop=1;jettySize=auto;html=1;" edge="1" parent="1" source="S-BvVyqAKhGbcT2tyxxs-13" target="S-BvVyqAKhGbcT2tyxxs-19">
          <mxGeometry relative="1" as="geometry">
            <Array as="points">
              <mxPoint x="250" y="410" />
            </Array>
          </mxGeometry>
        </mxCell>
        <mxCell id="S-BvVyqAKhGbcT2tyxxs-13" value="isleap = 1" style="rounded=0;whiteSpace=wrap;html=1;" vertex="1" parent="1">
          <mxGeometry x="190" y="340" width="120" height="40" as="geometry" />
        </mxCell>
        <mxCell id="S-BvVyqAKhGbcT2tyxxs-14" value="" style="edgeStyle=orthogonalEdgeStyle;rounded=0;orthogonalLoop=1;jettySize=auto;html=1;" edge="1" parent="1">
          <mxGeometry relative="1" as="geometry">
            <mxPoint x="330" y="315" as="sourcePoint" />
            <mxPoint x="250" y="340" as="targetPoint" />
            <Array as="points">
              <mxPoint x="250" y="315" />
            </Array>
          </mxGeometry>
        </mxCell>
        <mxCell id="S-BvVyqAKhGbcT2tyxxs-17" value="isleap = 0" style="rounded=0;whiteSpace=wrap;html=1;" vertex="1" parent="1">
          <mxGeometry x="650" y="245" width="120" height="40" as="geometry" />
        </mxCell>
        <mxCell id="S-BvVyqAKhGbcT2tyxxs-18" value="" style="endArrow=classic;html=1;rounded=0;exitX=1;exitY=0.5;exitDx=0;exitDy=0;entryX=0.5;entryY=0;entryDx=0;entryDy=0;" edge="1" parent="1" source="S-BvVyqAKhGbcT2tyxxs-6" target="S-BvVyqAKhGbcT2tyxxs-17">
          <mxGeometry width="50" height="50" relative="1" as="geometry">
            <mxPoint x="380" y="510" as="sourcePoint" />
            <mxPoint x="430" y="460" as="targetPoint" />
            <Array as="points">
              <mxPoint x="710" y="215" />
            </Array>
          </mxGeometry>
        </mxCell>
        <mxCell id="S-BvVyqAKhGbcT2tyxxs-19" value="" style="shape=waypoint;sketch=0;size=6;pointerEvents=1;points=[];fillColor=default;resizable=0;rotatable=0;perimeter=centerPerimeter;snapToPoint=1;rounded=0;" vertex="1" parent="1">
          <mxGeometry x="400" y="400" width="20" height="20" as="geometry" />
        </mxCell>
        <mxCell id="S-BvVyqAKhGbcT2tyxxs-21" value="" style="endArrow=classic;html=1;rounded=0;exitX=0.5;exitY=1;exitDx=0;exitDy=0;entryX=0.75;entryY=0.45;entryDx=0;entryDy=0;entryPerimeter=0;" edge="1" parent="1" source="S-BvVyqAKhGbcT2tyxxs-5" target="S-BvVyqAKhGbcT2tyxxs-19">
          <mxGeometry width="50" height="50" relative="1" as="geometry">
            <mxPoint x="380" y="510" as="sourcePoint" />
            <mxPoint x="430" y="460" as="targetPoint" />
            <Array as="points">
              <mxPoint x="570" y="410" />
            </Array>
          </mxGeometry>
        </mxCell>
        <mxCell id="S-BvVyqAKhGbcT2tyxxs-22" value="" style="endArrow=classic;html=1;rounded=0;" edge="1" parent="1" target="S-BvVyqAKhGbcT2tyxxs-23">
          <mxGeometry width="50" height="50" relative="1" as="geometry">
            <mxPoint x="409.77" y="410" as="sourcePoint" />
            <mxPoint x="409.77" y="450" as="targetPoint" />
          </mxGeometry>
        </mxCell>
        <mxCell id="S-BvVyqAKhGbcT2tyxxs-26" value="" style="edgeStyle=orthogonalEdgeStyle;rounded=0;orthogonalLoop=1;jettySize=auto;html=1;" edge="1" parent="1" source="S-BvVyqAKhGbcT2tyxxs-2" target="S-BvVyqAKhGbcT2tyxxs-23">
          <mxGeometry relative="1" as="geometry">
            <mxPoint x="80" y="330" as="sourcePoint" />
            <mxPoint x="410" y="440" as="targetPoint" />
            <Array as="points">
              <mxPoint x="80" y="440" />
            </Array>
          </mxGeometry>
        </mxCell>
        <mxCell id="S-BvVyqAKhGbcT2tyxxs-23" value="" style="shape=waypoint;sketch=0;size=6;pointerEvents=1;points=[];fillColor=default;resizable=0;rotatable=0;perimeter=centerPerimeter;snapToPoint=1;rounded=0;" vertex="1" parent="1">
          <mxGeometry x="400" y="430" width="20" height="20" as="geometry" />
        </mxCell>
        <mxCell id="S-BvVyqAKhGbcT2tyxxs-27" value="" style="endArrow=classic;html=1;rounded=0;entryX=0.706;entryY=0.556;entryDx=0;entryDy=0;entryPerimeter=0;exitX=0.5;exitY=1;exitDx=0;exitDy=0;" edge="1" parent="1" source="S-BvVyqAKhGbcT2tyxxs-17" target="S-BvVyqAKhGbcT2tyxxs-23">
          <mxGeometry width="50" height="50" relative="1" as="geometry">
            <mxPoint x="640" y="480" as="sourcePoint" />
            <mxPoint x="550" y="420" as="targetPoint" />
            <Array as="points">
              <mxPoint x="710" y="440" />
            </Array>
          </mxGeometry>
        </mxCell>
        <mxCell id="S-BvVyqAKhGbcT2tyxxs-28" value="" style="endArrow=classic;html=1;rounded=0;" edge="1" parent="1" source="S-BvVyqAKhGbcT2tyxxs-23" target="S-BvVyqAKhGbcT2tyxxs-29">
          <mxGeometry width="50" height="50" relative="1" as="geometry">
            <mxPoint x="450" y="400" as="sourcePoint" />
            <mxPoint x="410" y="490" as="targetPoint" />
          </mxGeometry>
        </mxCell>
        <mxCell id="S-BvVyqAKhGbcT2tyxxs-31" value="" style="edgeStyle=orthogonalEdgeStyle;rounded=0;orthogonalLoop=1;jettySize=auto;html=1;" edge="1" parent="1" source="S-BvVyqAKhGbcT2tyxxs-29" target="S-BvVyqAKhGbcT2tyxxs-30">
          <mxGeometry relative="1" as="geometry" />
        </mxCell>
        <mxCell id="S-BvVyqAKhGbcT2tyxxs-29" value="isleap" style="shape=parallelogram;perimeter=parallelogramPerimeter;whiteSpace=wrap;html=1;fixedSize=1;" vertex="1" parent="1">
          <mxGeometry x="350" y="470" width="120" height="30" as="geometry" />
        </mxCell>
        <mxCell id="S-BvVyqAKhGbcT2tyxxs-30" value="end" style="ellipse;whiteSpace=wrap;html=1;" vertex="1" parent="1">
          <mxGeometry x="370" y="530" width="80" height="40" as="geometry" />
        </mxCell>
      </root>
    </mxGraphModel>
  </diagram>
</mxfile>
